<?xml version="1.0" standalone="no"?>
<!DOCTYPE svg PUBLIC "-//W3C//DTD SVG 20010904//EN"
 "http://www.w3.org/TR/2001/REC-SVG-20010904/DTD/svg10.dtd">
<svg version="1.0" xmlns="http://www.w3.org/2000/svg"
 width="260.000000pt" height="260.000000pt" viewBox="0 0 260.000000 260.000000"
 preserveAspectRatio="xMidYMid meet">
<metadata>
Created by potrace 1.14, written by Peter Selinger 2001-2017
</metadata>
<g transform="translate(0.000000,260.000000) scale(0.100000,-0.100000)"
fill="#000000" stroke="none">
<path d="M486 1976 c-8 -6 -16 -23 -20 -38 -9 -38 19 -63 77 -72 25 -4 51 -13
57 -21 11 -14 8 -277 -4 -415 -3 -25 -7 -85 -11 -135 -3 -49 -8 -110 -10 -135
-5 -51 -12 -140 -20 -251 -3 -42 -8 -87 -10 -99 -5 -26 -32 -70 -43 -70 -44
-2 -119 -14 -126 -21 -11 -10 -12 -77 -2 -87 4 -3 112 -7 242 -9 222 -2 236
-1 254 17 45 45 19 82 -69 99 -90 18 -95 30 -87 189 7 133 13 223 21 332 5 80
18 307 19 338 0 12 3 22 6 22 3 0 45 -87 92 -192 48 -106 149 -328 223 -493
75 -165 140 -304 145 -309 12 -12 78 -12 89 0 5 5 46 95 91 199 45 105 90 208
100 230 10 22 66 150 125 285 59 134 113 256 120 270 l14 25 2 -25 c0 -14 2
-41 4 -60 4 -60 17 -272 20 -335 1 -33 6 -114 10 -180 12 -197 13 -219 3 -247
-10 -30 -46 -45 -118 -53 -52 -5 -70 -19 -70 -54 0 -57 -6 -55 310 -57 318 -2
320 -1 320 55 0 38 -19 52 -77 58 -55 6 -79 16 -92 41 -14 26 -24 110 -36 292
-3 41 -7 98 -9 125 -3 28 -8 95 -12 150 -4 55 -8 116 -9 135 -7 80 -18 288
-18 323 0 48 7 54 73 67 73 14 86 27 70 74 -13 41 5 38 -213 38 -133 1 -151
-1 -167 -18 -10 -11 -83 -165 -161 -344 -254 -579 -274 -622 -284 -621 -9 1
-59 108 -200 426 -29 66 -64 145 -78 175 -33 74 -56 125 -112 250 -25 58 -52
111 -60 119 -17 18 -348 24 -369 7z"/>
</g>
</svg>
